{"title":"Wolf.Creek.2005.1080p.Blu-ray.AC3.5.1.x264-Zenstar75.mkv","uid":9910522,"size":9262160474,"categoryP":"video","categoryS":"hd___movies","magnet":"?xt=urn:btih:c67aec9819c63523e79f29bcc426ecde48ad2b30&amp;dn=Wolf.Creek.2005.1080p.Blu-ray.AC3.5.1.x264-Zenstar75.mkv&amp;tr=udp%3A%2F%2Ftracker.openbittorrent.com%3A80&amp;tr=udp%3A%2F%2Fopen.demonii.com%3A1337&amp;tr=udp%3A%2F%2Ftracker.coppersurfer.tk%3A6969&amp;tr=udp%3A%2F%2Fexodus.desync.com%3A6969","seeders":1,"leechers":1,"uploader":"zenstar75","files":-1,"time":1396888786,"description":"Wolf.Creek.2005.1080p.Blu-ray.AC3.5.1.x264-Zenstar75.mkv\n\n\n &lt;a href=&quot;\nhttp://www.imdb.com/title/tt0416315/?ref_=nv_sr_2&quot; rel=&quot;nofollow&quot; target=&quot;_NEW&quot;&gt;\nhttp://www.imdb.com/title/tt0416315/?ref_=nv_sr_2&lt;/a&gt;\n\n\n\nFormat                                   : Matroska\nFormat version                           : Version 4 / Version 2\nFile size                                : 8.62 GiB\nDuration                                 : 1h 39mn\nOverall bit rate                         : 12.5 Mbps\nEncoded date                             : UTC 2014-04-07 12:26:32\nWriting application                      : mkvmerge v6.8.0 ('Theme for Great Cities') 32bit built on Mar  2 2014 21:27:07\nWriting library                          : libebml v1.3.0 + libmatroska v1.4.1\n\nVideo\nID                                       : 1\nFormat                                   : AVC\nFormat/Info                              : Advanced Video Codec\nFormat profile                           : &lt;a class=&quot;__cf_email__&quot; href=&quot;/cdn-cgi/l/email-protection&quot; data-cfemail=&quot;2860414f4068641d0619&quot;&gt;[email&amp;#160;protected]&lt;/a&gt;&lt;script cf-hash='f9e31' type=&quot;text/javascript&quot;&gt;\n/* &lt;![CDATA[ */!function(){try{var t=&quot;currentScript&quot;in document?document.currentScript:function(){for(var t=document.getElementsByTagName(&quot;script&quot;),e=t.length;e--;)if(t[e].getAttribute(&quot;cf-hash&quot;))return t[e]}();if(t&amp;&amp;t.previousSibling){var e,r,n,i,c=t.previousSibling,a=c.getAttribute(&quot;data-cfemail&quot;);if(a){for(e=&quot;&quot;,r=parseInt(a.substr(0,2),16),n=2;a.length-n;n+=2)i=parseInt(a.substr(n,2),16)^r,e+=String.fromCharCode(i);e=document.createTextNode(e),c.parentNode.replaceChild(e,c)}}}catch(u){}}();/* ]]&gt; */&lt;/script&gt;\nFormat settings, CABAC                   : Yes\nFormat settings, ReFrames                : 8 frames\nCodec ID                                 : V_MPEG4/ISO/AVC\nDuration                                 : 1h 39mn\nBit rate                                 : 11.9 Mbps\nWidth                                    : 1 920 pixels\nHeight                                   : 1 040 pixels\nDisplay aspect ratio                     : 1.85:1\nFrame rate mode                          : Constant\nFrame rate                               : 24.000 fps\nColor space                              : YUV\nChroma subsampling                       : 4:2:0\nBit depth                                : 8 bits\nScan type                                : Progressive\nBits/(Pixel*Frame)                       : 0.249\nStream size                              : 8.09 GiB (94%)\nTitle                                    : Wolf Creek\nWriting library                          : x264 core 57 svn-709C                            Language                                 : English\nDefault                                  : No\nForced                                   : No\n\nAudio\nID                                       : 2\nFormat                                   : AC-3\nFormat/Info                              : Audio Coding 3\nMode extension                           : CM (complete main)\nFormat settings, Endianness              : Big\nCodec ID                                 : A_AC3\nDuration                                 : 1h 39mn\nBit rate mode                            : Constant\nBit rate                                 : 512 Kbps\nChannel(s)                               : 6 channels\nChannel positions                        : Front: L C R, Side: L R, LFE\nSampling rate                            : 48.0 KHz\nBit depth                                : 16 bits\nCompression mode                         : Lossy\nStream size                              : 363 MiB (4%)\nTitle                                    : Wolf Creek\nLanguage                                 : English\nDefault                                  : No\nForced                                   : No\n\n\n\n\n\n\n\n\n\n\n\nLook forward to more quality 1080p BluRay releases. Enjoy.\n\n\n\n\n\n","torrent":{"xt":"urn:btih:c67aec9819c63523e79f29bcc426ecde48ad2b30","amp;dn":"Wolf.Creek.2005.1080p.Blu-ray.AC3.5.1.x264-Zenstar75.mkv","amp;tr":["udp%3A%2F%2Ftracker.openbittorrent.com%3A80","udp%3A%2F%2Fopen.demonii.com%3A1337","udp%3A%2F%2Ftracker.coppersurfer.tk%3A6969","udp%3A%2F%2Fexodus.desync.com%3A6969"],"infoHash":"c67aec9819c63523e79f29bcc426ecde48ad2b30","infoHashBuffer":{"type":"Buffer","data":[198,122,236,152,25,198,53,35,231,159,41,188,196,38,236,222,72,173,43,48]},"announce":[],"urlList":[]}}